<svg width="1606" height="1568" viewBox="0 0 1606 1568" fill="none" xmlns="http://www.w3.org/2000/svg">
<path d="M1043.02 55.2308C1042.34 55.2458 1041.69 55.2788 1041.59 55.3018C1041.71 55.3648 1044.32 55.3358 1044.46 55.2488C1044.38 55.2258 1043.88 55.2149 1043.26 55.2259L1043.02 55.2308Z" fill="#C98A4B"/>
<path d="M1006.81 63.6789C1006.97 63.5629 1004.24 64.7449 1004.09 64.8919C1004.93 64.5639 1005.93 64.0999 1006.76 63.7069L1006.81 63.6789Z" fill="#C98A4B"/>
<path d="M1205.27 335.601C1205.24 335.833 1205.04 337.532 1204.98 338.074C1204.94 338.416 1204.94 338.459 1204.98 338.166C1205.02 337.946 1205.27 335.767 1205.28 335.562L1205.27 335.601Z" fill="#C98A4B"/>
<path d="M867.928 615.611C924.472 682.183 1030.28 680.101 1098.18 632.234C1149.49 597.808 1185.75 544.669 1208.9 488.058C1249.57 386.816 1263.29 257.647 1236.81 151.36C1224.12 101.092 1199.83 51.4798 1154.15 23.6038C1079.01 -22.8092 984.24 3.27679 933.233 72.8568C913.819 98.4358 898.226 126.786 884.174 155.605C851.942 221.287 831.623 292.655 822.464 365.227C813.489 447.416 811.253 549.051 867.799 615.461L867.928 615.611ZM1122.13 561.376C1122.47 561.027 1122.56 560.919 1122.77 560.718C1122.69 560.809 1122.21 561.304 1122.14 561.372L1122.13 561.376ZM1165.1 497.674C1165.08 497.752 1164.48 498.989 1164.39 499.165C1164.37 499.156 1164.97 497.947 1165.11 497.666L1165.1 497.674ZM1186.96 439.187C1187.19 438.367 1187.62 436.778 1187.87 435.942C1187.92 435.798 1186.95 439.306 1186.95 439.23L1186.96 439.187ZM862.174 380.74C867.565 303.864 887.787 227.544 922.68 158.733C939.351 127.681 956.111 94.2078 986.517 74.5098C999.909 65.6088 1014.68 59.9448 1030.38 57.0398C1082.56 46.8048 1138.51 72.9278 1166.74 117.61C1174.68 129.483 1180 140.491 1184.9 154.167C1193.03 176.207 1198.87 199.386 1202.57 222.474C1214.38 303.809 1203.43 403.639 1172.78 480.012C1165.24 498.61 1155.27 518.317 1144.01 534.672C1132.55 550.471 1117.52 567.635 1101.48 579.771C1046.54 622.803 958.121 625.852 908.147 573.425C860.682 522.443 858.433 446.75 862.16 380.937L862.174 380.74Z" fill="#C98A4B"/>
<path d="M1546.69 669.884C1546.67 670.213 1547.2 666.569 1547.13 666.808C1546.84 667.611 1546.73 668.985 1546.69 669.812L1546.69 669.884Z" fill="#C98A4B"/>
<path d="M1569.9 418.061C1528.16 363.563 1452.07 346.739 1390.91 377.582C1339.51 402.011 1289.15 464.263 1257.29 511.086C1193.09 606.307 1109.7 803.893 1195.85 904.299C1252.9 967.925 1350.57 967.688 1419.01 922.348C1498.28 871.052 1546.6 784.692 1577.22 697.558C1605.5 615.22 1626.68 492.283 1570.03 418.217L1569.9 418.061ZM1214.55 831.412C1214.46 831.223 1214.09 830.376 1214.09 830.361C1214.07 830.328 1214.14 830.481 1214.26 830.751C1214.45 831.177 1214.63 831.609 1214.56 831.428L1214.55 831.412ZM1561.78 583.762C1557.74 660.27 1523.13 755.059 1477.06 816.309C1445.45 858.388 1399.74 894.006 1345.97 899.071C1303.89 902.569 1258.32 888.826 1230.54 855.773C1173.86 788.397 1214.42 671.782 1247.1 600.821C1274.66 544.246 1312.26 490.498 1359.29 448.251C1377.74 431.418 1401.73 420.334 1426.64 417.53C1478.9 412.553 1530.08 444.05 1549.82 492.638C1561.55 521.116 1562.87 552.966 1561.79 583.565L1561.78 583.762Z" fill="#C98A4B"/>
<path d="M1387.26 889.172C1387.38 889.162 1387.76 888.928 1388 888.808C1389.02 888.264 1390.14 887.584 1389.9 887.596C1388.98 887.922 1388.08 888.61 1387.29 889.143L1387.26 889.172Z" fill="#C98A4B"/>
<path d="M1374.55 436.152C1373.96 436.489 1372.02 437.792 1371.88 437.941C1371.92 438.028 1373.96 436.644 1374.42 436.325C1374.86 436.013 1374.96 435.913 1374.66 436.088L1374.55 436.152Z" fill="#C98A4B"/>
<path d="M1287.72 530.724C1287.53 530.997 1287.48 531.075 1287.59 530.946C1288.3 529.99 1289.38 528.514 1290.08 527.474C1290.18 527.298 1288.53 529.553 1287.81 530.598L1287.72 530.724Z" fill="#C98A4B"/>
<path d="M365.451 402.428C378.406 474.852 404.816 547.809 455.935 602.062C519.324 672.779 632.881 691.893 708.521 629.47C801.958 551.58 795.845 402.542 774.99 293.448C760.519 221.074 733.54 150.682 694.576 87.8318C661.388 32.2968 607.427 -4.07415 541.072 0.365847C531.043 1.05785 521.075 2.70085 511.342 5.22885C352.173 50.2079 340.171 266.371 365.416 402.232L365.451 402.428ZM520.677 55.3738C520.622 55.3778 520.228 55.3948 520.273 55.3918C520.241 55.3928 520.631 55.3759 520.68 55.3729L520.677 55.3738ZM521.992 55.2599C522.112 55.2439 522.959 55.1459 522.873 55.1569C523.009 55.1419 523.062 55.1378 522.976 55.1488C522.964 55.1538 521.937 55.2698 522.041 55.2568L521.992 55.2599ZM447.748 89.0938C448.256 88.5598 448.42 88.3929 448.677 88.1399C448.806 88.0159 448.852 87.9839 448.8 88.0569C448.517 88.4599 446.423 90.6768 446.025 91.0468C445.704 91.3598 445.744 91.2789 446.073 90.9059C446.494 90.4279 447.095 89.7858 447.57 89.2828L447.748 89.0938ZM398.151 255.497C399.368 207.275 406.864 157.732 429.249 114.516C448.481 78.6188 487.97 56.4358 528.224 55.0638C575.502 52.6438 620.98 78.5589 646.997 117.48C666.179 145.005 681.837 174.864 695.192 205.587C721.48 266.855 738.235 332.992 742.782 399.687C745.771 445.434 745.986 492.621 731.03 536.422C716.151 582.285 679.1 607.492 631.999 612.175C549.484 618.093 485.634 564.615 448.715 494.885C411.337 422.74 397.47 336.325 398.146 255.697L398.151 255.497Z" fill="#C98A4B"/>
<path d="M714.459 569.337C714.927 568.721 715.957 567.385 716.389 566.622C716.361 566.65 716.305 566.706 716.277 566.734C715.953 567.106 714.647 568.86 714.229 569.497C713.943 569.926 713.996 569.919 714.358 569.464L714.459 569.337Z" fill="#C98A4B"/>
<path d="M725.562 550.434C725.824 549.856 726.09 549.258 726.313 548.736C726.496 548.308 726.505 548.265 726.279 548.756C725.976 549.415 725.421 550.642 725.081 551.435C724.978 551.691 725.059 551.514 725.138 551.354C725.213 551.196 725.325 550.954 725.458 550.662L725.562 550.434Z" fill="#C98A4B"/>
<path d="M386.104 858.485C386.382 858.084 386.924 857.403 387.06 857.104C386.551 857.706 385.029 859.775 384.777 860.206C384.914 860.06 384.993 859.95 385.198 859.689C385.398 859.431 385.657 859.089 385.937 858.711L386.104 858.485Z" fill="#C98A4B"/>
<path d="M365.612 878.353C366.091 878.129 368.855 875.922 368.281 876.294C367.401 876.906 366.413 877.662 365.632 878.328L365.612 878.353Z" fill="#C98A4B"/>
<path d="M49.454 487.884C49.495 487.774 49.965 486.277 50.115 485.785C50.23 485.411 50.259 485.302 50.174 485.559C50.122 485.702 49.497 487.709 49.459 487.857L49.454 487.884Z" fill="#C98A4B"/>
<path d="M397.93 901.511C464.921 830.845 451.024 723.431 421.485 638.836C390.865 550.544 340.256 468.494 271.393 404.953C262.49 396.98 253.109 389.661 242.92 383.507C160.413 333.384 60.062 376.402 21.054 460.479C10.966 480.948 5.41198 503.269 2.62298 525.838C-9.20902 621.217 20.298 717.75 64.787 801.399C103.188 871.162 162.359 939.316 244.94 952.326C300.416 961.484 359.232 942.813 397.792 901.656L397.93 901.511ZM44.226 518.872C44.223 518.812 44.229 518.744 44.225 518.686C44.228 518.728 44.228 518.792 44.226 518.872ZM44.133 519.707C44.228 518.799 44.257 518.792 44.118 520.237C44.025 521.212 43.921 522.108 43.919 522.007C43.956 521.374 44.036 520.68 44.109 519.944L44.133 519.707ZM316.457 897.52C208.509 915.162 127.392 816.834 87.804 728.053C64.695 675.765 46.93 620.084 43.667 562.713C42.597 530.469 42.413 495.113 58.801 466.153C81.763 425.437 134.324 408.99 178.453 420.824C220.263 431.645 250.898 464.716 278.287 496.221C335.613 563.957 376.67 645.227 396.075 731.827C400.444 751.593 403.151 771.699 403.093 791.942C402.924 813.869 399.093 840.865 385.784 858.65C369.606 880.587 343.07 892.925 316.65 897.487L316.457 897.52Z" fill="#C98A4B"/>
<path d="M1131.58 1466.18C1133.92 1464.72 1129.49 1467.11 1129.22 1467.41C1129.22 1467.48 1130.37 1466.9 1131.37 1466.3L1131.58 1466.18Z" fill="#C98A4B"/>
<path d="M1242.83 1168.78C1242.79 1168.24 1242.78 1167.56 1242.62 1167.17C1242.4 1167.83 1242.4 1168.87 1242.58 1169.5C1242.7 1169.77 1242.84 1169.53 1242.83 1168.99L1242.83 1168.78Z" fill="#C98A4B"/>
<path d="M429.414 1026.29C427.769 1028.67 430.996 1024.09 430.917 1024.17C430.495 1024.74 430.007 1025.44 429.568 1026.07L429.414 1026.29Z" fill="#C98A4B"/>
<path d="M1287.18 1153.58C1275.41 1031.51 1207.01 919.028 1107.91 847.791C1036.29 796.29 949.998 762.557 861.326 760.264C808.848 759.343 755.628 762.855 704.835 776.672C545.437 823.299 412.223 949.496 348.353 1101.87C327.939 1152.2 315.69 1206.49 315.998 1260.96C317.16 1348.39 351.891 1437.04 415.959 1497.48C486.173 1565.69 590.948 1582.86 683.04 1555.46C713.413 1547.01 741.597 1533.18 769.161 1518.41C774.909 1515.65 780.802 1513.27 786.913 1511.68C814.972 1504.28 837.995 1514.19 862.63 1526.65C941.147 1564.76 1036.21 1570.59 1113.9 1527.11C1240.86 1453.75 1301.72 1295.87 1287.2 1153.78L1287.18 1153.58ZM651.03 845.577C651.406 845.383 652.586 844.921 653.021 844.748C653.659 844.499 653.602 844.554 652.874 844.864C652.154 845.171 651.075 845.588 651.031 845.583L651.03 845.577ZM360.437 1205.46C360.437 1205.48 360.436 1205.51 360.435 1205.54C360.434 1205.51 360.437 1205.49 360.437 1205.46ZM362.057 1274.8C362.065 1274.86 362.072 1274.91 362.074 1274.94C362.07 1274.89 362.062 1274.85 362.057 1274.8ZM388.052 1362.3C387.878 1361.96 387.423 1360.99 387.14 1360.38C387.04 1360.16 387.043 1360.15 387.151 1360.37C387.363 1360.79 387.999 1362.16 388.045 1362.28L388.052 1362.3ZM1245.7 1236.6C1241.34 1330.59 1197.82 1429.58 1113.43 1477.4C1044.35 1516.67 956.721 1506.92 887.745 1472.31C855.617 1455.31 824.25 1448.58 788.92 1460.14C772.946 1465.2 758.449 1474.01 743.693 1481.7C669.261 1519.71 574.879 1525.77 500.284 1485.01C413.357 1438.14 362.557 1339.03 359.41 1242.15C358.158 1200.98 365.774 1159.66 379.947 1120.93C424.846 999.002 534.616 892.193 654.468 844.224C686.084 831.615 719.428 822.839 753.302 819.044C797.242 814.263 842.042 812.803 886.057 818.953C929.621 824.844 971.546 839.63 1010.84 859.071C1152.79 928.082 1254.64 1075.76 1245.7 1236.4L1245.7 1236.6Z" fill="#C98A4B"/>
<path d="M372.021 1145C371.881 1145.37 371.195 1148.09 371.084 1148.69C371.375 1147.72 371.791 1146 372.013 1145.05L372.021 1145Z" fill="#C98A4B"/>
<path d="M1164.34 1437.98C1163.49 1438.71 1162.44 1439.74 1161.62 1440.56C1161.44 1440.75 1161.67 1440.55 1162.17 1440.09C1162.77 1439.53 1163.72 1438.63 1164.32 1438L1164.34 1437.98Z" fill="#C98A4B"/>
<path d="M1189.96 1406.8C1190.29 1406.35 1191.34 1404.87 1191.52 1404.58C1191.55 1404.54 1191.2 1405.03 1191.16 1405.09C1190.96 1405.36 1189.02 1408.09 1189.86 1406.95L1189.96 1406.8Z" fill="#C98A4B"/>
</svg>
