<svg width="13" height="39" viewBox="0 0 13 39" fill="none" xmlns="http://www.w3.org/2000/svg">
<path d="M12.2034 32.5987C11.9481 31.4726 11.3237 30.5167 10.4876 29.9699C10.4841 29.9673 10.4807 29.9648 10.4768 29.9622C10.4768 29.9622 10.473 29.96 10.4714 29.9587L10.4711 29.9584C9.14035 29.1118 9.17087 28.3463 9.2033 27.536C9.22364 27.0302 9.24431 26.5069 8.93435 25.9706C8.23431 24.76 8.21714 24.4055 8.17613 23.55C8.17264 23.4769 8.16914 23.4006 8.16469 23.3199C8.12304 22.5321 8.01019 20.1799 7.87158 17.2586C7.98189 13.9644 8.11541 9.6676 8.13989 7.47085C8.14403 7.11288 8.14848 6.76064 8.15324 6.41603C8.20697 2.34839 8.19902 0.218721 7.41919 0.0715295C7.40997 0.06994 7.40076 0.0689861 7.39185 0.0689861C7.36006 0.0689861 7.32891 0.0791593 7.30316 0.0985518C7.2701 0.123349 7.24879 0.16118 7.24466 0.202508C7.2418 0.230802 7.19888 0.66729 7.12704 1.39562C7.09111 0.629459 7.06981 0.170717 7.06854 0.140833C7.06663 0.100777 7.04883 0.0632638 7.01863 0.0368774C6.99161 0.0130343 6.95664 0 6.92071 0C6.9169 0 6.91308 1.28534e-07 6.90927 0.000318037C6.0293 0.0689863 5.88878 2.30039 5.69772 6.57021C5.68151 6.93231 5.66498 7.30204 5.64749 7.67749C5.52382 10.3155 5.4418 15.5238 5.39952 18.8354C5.24311 20.4027 5.12421 21.585 5.07144 22.0886C4.82443 24.4532 4.37999 27.0674 2.22012 28.1568C2.21758 28.1581 2.21503 28.1594 2.21249 28.161C2.16131 28.1893 2.11012 28.2191 2.05926 28.2506C1.3233 28.7078 0.717047 29.4571 0.352088 30.3603C-0.0128706 31.2634 -0.0974345 32.2235 0.113975 33.0638C0.340008 33.9628 0.873776 34.6234 1.61673 34.9235C1.88695 35.0326 2.17466 35.0882 2.47222 35.0882C2.66296 35.0882 2.85848 35.0653 3.05272 35.0198C4.16445 34.7604 5.17699 33.8042 5.69549 32.5239C5.69581 32.523 5.69645 32.5217 5.69677 32.5208C6.07222 31.5915 6.14661 30.6101 5.90786 29.7473C5.90881 29.7286 5.90595 29.7095 5.89959 29.6911C5.36773 28.1893 4.94078 26.5613 6.04456 24.6274C6.18762 24.3766 6.32082 24.1436 6.44449 23.9271C6.6559 24.3299 6.89687 24.7889 7.16836 25.3071C8.23749 27.3481 7.49422 29.5563 6.84187 31.0396C6.8371 31.0495 6.82947 31.0638 6.82216 31.0784C6.80722 31.1073 6.7926 31.1363 6.77924 31.1671C6.77161 31.1846 6.76494 31.203 6.75858 31.2212C6.75477 31.2313 6.75127 31.2415 6.74714 31.2517L6.7376 31.272L6.71503 31.3219C6.70771 31.3378 6.70358 31.3544 6.70231 31.3709C6.42891 32.1256 6.38536 33.0116 6.58055 33.8735C6.79609 34.8234 7.27423 35.6604 7.92721 36.2298C8.19521 36.4635 8.48292 36.6444 8.78175 36.7674C9.08758 36.8933 9.40135 36.9569 9.71449 36.9569C9.83721 36.9569 9.95992 36.9435 10.0814 36.9238C10.1949 37.1257 10.4069 37.5186 10.5719 37.9144C10.8084 38.4819 10.7827 38.7661 10.8294 38.8777C10.8758 38.9892 10.9849 38.9912 11.3307 38.8471C11.6766 38.7031 11.752 38.624 11.7052 38.5124C11.6588 38.4008 11.4385 38.219 11.202 37.6515C11.0468 37.2795 10.9232 36.8806 10.8558 36.6491C12.0028 35.9828 12.5944 34.3243 12.2034 32.5987ZM5.55879 18.6574C5.56483 18.3061 5.57056 17.9548 5.58105 17.6255C5.58995 17.2961 5.60616 16.989 5.61602 16.7255C5.62619 16.4623 5.64336 16.2426 5.6513 16.089C5.66243 15.9355 5.66879 15.8477 5.66879 15.8477C5.66879 15.8477 5.67292 15.9355 5.67992 16.0893C5.68405 16.2432 5.69549 16.4629 5.69899 16.7264C5.70217 16.99 5.71044 17.2974 5.71075 17.6271C5.71266 17.9564 5.70948 18.3077 5.7063 18.659C5.70026 19.0103 5.69486 19.3616 5.68437 19.6909C5.67578 20.0203 5.65925 20.3274 5.6494 20.5909C5.63954 20.8542 5.62174 21.0738 5.61379 21.2274C5.60266 21.3809 5.59631 21.4687 5.59631 21.4687C5.59631 21.4687 5.59217 21.3806 5.58518 21.2271C5.58105 21.0732 5.56928 20.8535 5.56611 20.59C5.56293 20.3264 5.55434 20.019 5.55434 19.6893C5.55212 19.36 5.55593 19.0087 5.55879 18.6574ZM1.74135 34.1103C1.70034 34.0941 1.63898 34.069 1.56713 34.0264C1.42376 33.9434 1.22665 33.7924 1.06611 33.5495C0.985362 33.4293 0.911925 33.2892 0.851523 33.1343C0.821321 33.0561 0.795253 32.977 0.770774 32.8905C0.748202 32.8091 0.730081 32.7223 0.714186 32.6311C0.652512 32.2738 0.661095 31.8824 0.728492 31.5031C0.763462 31.3137 0.813055 31.1274 0.873458 30.9481C0.903659 30.8578 0.93704 30.7716 0.973599 30.6845C1.00921 30.6012 1.04767 30.5186 1.08836 30.4366C1.2505 30.1145 1.45078 29.8418 1.64216 29.6284C1.83418 29.4148 2.02524 29.2686 2.16099 29.1732C2.22997 29.1268 2.28561 29.0928 2.32471 29.0711C2.36318 29.0489 2.38384 29.0374 2.38384 29.0374C2.38384 29.0374 2.30595 29.0915 2.17847 29.1961C2.11584 29.2495 2.0405 29.315 1.96039 29.397C1.87932 29.4774 1.79507 29.575 1.70542 29.6825C1.35159 30.1155 1.00348 30.7971 0.873776 31.5295C0.805744 31.8938 0.795571 32.268 0.842303 32.6114C0.854066 32.6956 0.870597 32.7792 0.8884 32.8638C0.906521 32.9423 0.928138 33.0231 0.952617 33.0981C1.00221 33.2488 1.06516 33.3861 1.13605 33.505C1.27816 33.7434 1.44728 33.91 1.58271 34.0019C1.64979 34.049 1.70511 34.082 1.74453 34.1027C1.78395 34.123 1.80493 34.1338 1.80493 34.1338C1.80493 34.1338 1.78299 34.1259 1.74135 34.1103ZM4.73732 32.1326C4.737 32.1336 4.73636 32.1348 4.73605 32.1358C4.27762 33.2666 3.3541 34.0563 2.48907 34.0563C2.31962 34.0563 2.15654 34.0251 2.00458 33.9634C1.57604 33.7902 1.26099 33.381 1.11761 32.8107C0.959294 32.1816 1.02828 31.4491 1.31185 30.7478C1.59511 30.0465 2.05481 29.4717 2.60574 29.1296C2.80984 29.0028 3.0168 28.9144 3.22121 28.8667C3.33789 28.8397 3.45392 28.8257 3.56614 28.8257C3.734 28.8257 3.89518 28.8562 4.04491 28.917C4.9891 29.2984 5.2997 30.7411 4.73732 32.1326ZM5.78038 24.6989C5.75304 24.6865 5.71743 24.6659 5.67388 24.6439C5.63159 24.6207 5.58232 24.5956 5.53241 24.5667C5.48059 24.5409 5.42813 24.5107 5.37313 24.485C5.26505 24.4313 5.15441 24.3836 5.06572 24.3486C4.97766 24.3146 4.9109 24.2911 4.9109 24.2911C4.9109 24.2911 4.9748 24.2548 5.08002 24.2488C5.13216 24.2456 5.19383 24.2475 5.25773 24.2618C5.32259 24.2729 5.38744 24.2993 5.45102 24.327C5.51206 24.3601 5.57119 24.3966 5.62015 24.4389C5.66879 24.4815 5.71044 24.5251 5.74 24.5677C5.80199 24.65 5.82393 24.718 5.82393 24.718C5.82393 24.718 5.80772 24.7117 5.78038 24.6989ZM5.54004 22.61C5.48504 22.5464 5.44403 22.4656 5.42782 22.3728L5.42336 22.3156L5.42241 22.3013C5.42178 22.2832 5.42241 22.2879 5.42273 22.2803L5.42368 22.2517L5.42813 22.1366C5.43068 22.093 5.4329 22.0505 5.43544 22.0069C5.46247 22.0581 5.49998 22.1296 5.54862 22.2215L5.54671 22.2565L5.54512 22.2851C5.54512 22.2863 5.54481 22.2933 5.54449 22.2949L5.54512 22.307L5.54862 22.3642C5.56007 22.4218 5.58582 22.4822 5.62905 22.534C5.67102 22.5817 5.7222 22.6224 5.77783 22.6567C5.80581 22.7101 5.83474 22.7648 5.86558 22.8236C5.7489 22.7781 5.63382 22.7123 5.54004 22.61ZM7.15438 18.0404C7.14388 18.1163 7.11654 18.191 7.07458 18.2565C7.03421 18.323 6.97953 18.3808 6.91594 18.4238C6.85046 18.4657 6.78528 18.4994 6.70454 18.515C6.63523 18.5287 6.5602 18.5328 6.48963 18.5213C6.41969 18.5096 6.35356 18.4873 6.2957 18.4578C6.17967 18.3977 6.09924 18.3112 6.05123 18.2438C6.02962 18.2088 6.00959 18.1812 6.00037 18.1602C5.98956 18.1395 5.98384 18.1287 5.98384 18.1287C5.98384 18.1287 5.98479 18.1411 5.98638 18.1643C5.98733 18.1882 5.99178 18.2225 6.00259 18.2664C6.0258 18.3516 6.08144 18.4787 6.20764 18.5852C6.25088 18.6231 6.30302 18.6571 6.36183 18.6851C6.13389 18.5992 5.95173 18.4053 5.89228 18.1503C5.79754 17.7444 6.04996 17.3384 6.45593 17.244C6.71821 17.183 6.97921 17.2678 7.15756 17.4446C7.10224 17.3979 7.04374 17.3584 6.98557 17.3346C6.83456 17.2685 6.69563 17.2745 6.60916 17.2914C6.56402 17.3012 6.53159 17.3123 6.51061 17.3219C6.48899 17.3305 6.47755 17.3352 6.47755 17.3352C6.47755 17.3352 6.48995 17.3356 6.51315 17.3362C6.53668 17.3349 6.57101 17.3406 6.61075 17.3448C6.69246 17.3578 6.80595 17.3915 6.91086 17.4691C7.01577 17.546 7.1086 17.6671 7.1442 17.814C7.14738 17.8312 7.15469 17.8537 7.15469 17.8665C7.1566 17.8874 7.16296 17.917 7.16105 17.931C7.16105 17.9621 7.1601 18.0025 7.15438 18.0404ZM7.24816 15.1188C7.15056 15.1455 7.00432 15.1798 6.81199 15.1874C6.62315 15.1881 6.37455 15.1655 6.14025 15.0069C6.02834 14.9283 5.91167 14.8174 5.85063 14.6667C5.78451 14.5195 5.7613 14.3539 5.75335 14.1879C5.7524 13.5359 5.73078 12.785 5.74509 11.9753C5.75653 11.1669 5.77465 10.3047 5.79786 9.44284C5.83855 8.58162 5.87893 7.72041 5.91708 6.91324C5.95777 6.10607 6.0204 5.35422 6.06331 4.70918C6.10782 4.06414 6.16282 3.52783 6.19334 3.15174C6.23022 2.77598 6.2512 2.56139 6.2512 2.56139C6.2512 2.56139 6.25088 2.77693 6.25056 3.15461C6.24389 3.53165 6.24643 4.07114 6.22894 4.71713C6.21019 5.36312 6.20224 6.11751 6.17299 6.92437C6.14756 7.73154 6.12022 8.59243 6.0932 9.45333C6.05664 10.3136 6.02548 11.1742 6.00164 11.9813C5.97748 12.7869 5.94314 13.5442 5.91994 14.1841C5.92089 14.3402 5.93456 14.4874 5.98193 14.6136C6.02421 14.7424 6.11164 14.8384 6.20637 14.9182C6.39998 15.0746 6.63078 15.12 6.81294 15.1305C6.99828 15.141 7.14579 15.1216 7.24466 15.1045C7.34385 15.0867 7.39567 15.0708 7.39567 15.0708C7.39567 15.0708 7.34608 15.0914 7.24816 15.1188ZM7.85441 23.7284C7.87285 23.9318 7.89256 24.2249 7.97045 24.5619C8.01019 24.7301 8.06995 24.9081 8.14752 25.0903C8.22636 25.2725 8.32333 25.4591 8.42378 25.6517C8.47656 25.7468 8.52806 25.8441 8.58528 25.9417C8.61358 25.9906 8.64187 26.0396 8.67016 26.0892C8.69623 26.1419 8.7223 26.195 8.74869 26.2484C8.80845 26.3527 8.83452 26.4716 8.87331 26.5861C8.88952 26.6442 8.89652 26.7043 8.90828 26.7634C8.92004 26.8229 8.9299 26.8823 8.93212 26.9421C8.95501 27.1821 8.93689 27.4183 8.92958 27.6482C8.91877 27.8774 8.91305 28.1009 8.93212 28.3142C8.94293 28.4204 8.962 28.5234 8.9814 28.6238C8.99538 28.6731 9.00937 28.7218 9.02272 28.7698L9.04307 28.8416C9.05197 28.8645 9.0631 28.8868 9.07264 28.909C9.14417 29.0912 9.2478 29.2473 9.34922 29.3856C9.46176 29.5162 9.56094 29.6408 9.66967 29.7314C9.72117 29.7798 9.76981 29.8249 9.81432 29.8665C9.85978 29.9079 9.90778 29.939 9.94784 29.9708C10.1103 30.0954 10.2031 30.167 10.2031 30.167C10.2031 30.167 10.1042 30.1043 9.93162 29.9943C9.88934 29.9654 9.83943 29.9381 9.79111 29.8996C9.74279 29.8605 9.69033 29.8182 9.6347 29.7731C9.58065 29.7257 9.51453 29.6841 9.46048 29.6237C9.40485 29.5645 9.34636 29.5025 9.28564 29.4377C9.17437 29.2991 9.05897 29.1408 8.97504 28.9513C8.96359 28.9281 8.95119 28.9052 8.9407 28.881L8.91559 28.806C8.89906 28.7555 8.88189 28.7046 8.86504 28.6528C8.83834 28.5482 8.81894 28.4379 8.80559 28.3269C8.78239 28.1034 8.78525 27.8729 8.79288 27.6428C8.79701 27.4132 8.81131 27.1805 8.78588 26.9548C8.78429 26.8976 8.77603 26.8416 8.76554 26.7863C8.75505 26.731 8.74996 26.6744 8.73533 26.6204C8.70005 26.5145 8.67875 26.4033 8.62407 26.306L8.55286 26.1556C8.5252 26.1057 8.49754 26.0561 8.4702 26.0071C8.41457 25.9095 8.36306 25.8088 8.31093 25.7115C8.10715 25.3208 7.95423 24.9301 7.88938 24.5791C7.8223 24.2288 7.83247 23.9334 7.8258 23.7293C7.82484 23.5246 7.82421 23.4076 7.82421 23.4076C7.82421 23.4076 7.83534 23.5246 7.85441 23.7284ZM7.65063 19.8833C7.62583 19.4983 7.60549 19.0875 7.58419 18.6768C7.56607 18.2658 7.54763 17.855 7.53555 17.4694C7.52188 17.0841 7.51711 16.7239 7.50884 16.4155C7.5009 16.1072 7.50312 15.8496 7.50058 15.6694C7.50121 15.4891 7.50121 15.3861 7.50121 15.3861C7.50121 15.3861 7.51139 15.4885 7.52887 15.6678C7.5435 15.8471 7.5702 16.1033 7.5915 16.4111C7.6128 16.7188 7.64205 17.0777 7.66526 17.4627C7.69005 17.8477 7.71072 18.2584 7.7317 18.6692C7.74982 19.0802 7.76858 19.491 7.78066 19.8766C7.79464 20.2619 7.79909 20.6221 7.80736 20.9305C7.81563 21.2388 7.81308 21.4963 7.81563 21.6766C7.81499 21.8568 7.81467 21.9598 7.81467 21.9598C7.81467 21.9598 7.8045 21.8575 7.7867 21.6782C7.77207 21.4989 7.74505 21.2426 7.72407 20.9349C7.70309 20.6272 7.6732 20.2683 7.65063 19.8833ZM9.0135 36.1068C8.86091 36.0464 8.71721 35.9647 8.58274 35.8709C8.44667 35.7755 8.3246 35.6712 8.2092 35.5517C8.09507 35.4341 7.99016 35.3072 7.89701 35.1728C7.80386 35.038 7.72025 34.8968 7.64618 34.7512C7.57115 34.6059 7.50884 34.4543 7.45544 34.3001C7.40298 34.1478 7.35784 33.993 7.32414 33.8356L7.3235 33.834L7.32255 33.8293C7.2844 33.6471 7.25642 33.4624 7.24434 33.2768C7.2329 33.0911 7.23417 32.9048 7.24975 32.7198C7.25738 32.6273 7.26882 32.5351 7.28377 32.4438C7.29839 32.3523 7.32001 32.262 7.34353 32.1727C7.36737 32.0833 7.39599 31.9953 7.42746 31.9088C7.45893 31.822 7.49772 31.7384 7.53777 31.6561C7.47642 31.829 7.4281 32.0054 7.39662 32.1847C7.3661 32.364 7.34671 32.5446 7.34131 32.7255C7.3359 32.9064 7.34449 33.0873 7.36515 33.2666C7.38518 33.4456 7.41474 33.6236 7.45702 33.7984L7.45734 33.7994C7.49581 33.9523 7.53873 34.1043 7.59214 34.2524C7.64459 34.4009 7.70754 34.5452 7.77716 34.686C7.91767 34.9668 8.09221 35.2316 8.30393 35.463C8.40916 35.5762 8.52583 35.6878 8.64759 35.7831C8.77126 35.8795 8.90383 35.9647 9.04657 36.0302C9.18899 36.095 9.33904 36.1459 9.49482 36.1723C9.65091 36.1967 9.81082 36.1964 9.97009 36.1719C9.66077 36.2619 9.31647 36.2304 9.0135 36.1068ZM10.8612 37.1031C10.8914 37.1867 10.9267 37.284 10.9645 37.3886C11.0027 37.4922 11.0402 37.6035 11.0844 37.7103C11.105 37.764 11.127 37.8178 11.1521 37.8661C11.1756 37.9131 11.2055 37.9678 11.2309 38.013C11.2869 38.1077 11.3393 38.1964 11.3841 38.2724C11.477 38.4259 11.5387 38.5283 11.5387 38.5283C11.5387 38.5283 11.4395 38.4571 11.3164 38.3235C11.2544 38.2574 11.1864 38.176 11.1209 38.0826C11.0882 38.0327 11.0554 37.9904 11.0259 37.9328C10.9953 37.8782 10.9705 37.8219 10.947 37.7653C10.858 37.5374 10.8065 37.3027 10.7792 37.1244C10.7512 36.9464 10.7502 36.8246 10.7502 36.8246C10.7502 36.8246 10.7995 36.9356 10.8612 37.1031ZM9.99394 35.8906C9.90429 35.9109 9.81177 35.9211 9.71894 35.9211C9.34572 35.9211 8.96169 35.758 8.60785 35.4497C8.11891 35.023 7.75777 34.3821 7.59055 33.6446C7.59023 33.6433 7.58991 33.6423 7.58959 33.6411C7.42333 32.9045 7.47292 32.1717 7.72979 31.5772C7.96282 31.0374 8.33954 30.6839 8.79033 30.5815C8.88157 30.5609 8.97536 30.5504 9.06946 30.5504C9.25035 30.5504 9.43473 30.5885 9.61785 30.6639C10.3449 30.963 10.9636 31.8121 11.1937 32.8272C11.5256 34.2912 10.9874 35.6652 9.99394 35.8906Z" fill="black"/>
<path d="M6.585 17.9097C6.31191 17.9733 6.03247 17.7762 6.09605 18.0496C6.15963 18.3226 6.43272 18.4924 6.7058 18.4288C6.97888 18.3652 7.14865 18.0922 7.08507 17.8191C7.02148 17.5457 6.85808 17.8461 6.585 17.9097Z" fill="white"/>
<path d="M6.27531 17.6514C6.30138 17.6406 6.33539 17.6374 6.36623 17.6263C6.39771 17.6158 6.43204 17.6072 6.46669 17.6015C6.49975 17.5904 6.53409 17.5821 6.56715 17.5767C6.59989 17.5729 6.63137 17.5592 6.65934 17.5567C6.687 17.5526 6.71243 17.5433 6.72992 17.5411C6.74836 17.5363 6.75885 17.5338 6.75885 17.5338C6.75885 17.5338 6.75027 17.5268 6.73532 17.5147C6.71943 17.5055 6.69686 17.4877 6.66634 17.4788C6.63614 17.4699 6.59926 17.4565 6.5592 17.4565C6.51915 17.4565 6.47623 17.46 6.43363 17.467C6.39262 17.4807 6.3532 17.4976 6.31791 17.5163C6.28262 17.5354 6.25592 17.564 6.23335 17.5859C6.21046 17.6079 6.19869 17.6343 6.18884 17.6498C6.18121 17.6673 6.17676 17.6775 6.17676 17.6775C6.17676 17.6775 6.18725 17.6749 6.20569 17.6705C6.22222 17.6641 6.24892 17.6606 6.27531 17.6514Z" fill="white"/>
</svg>
