<svg width="24" height="38" viewBox="0 0 24 38" fill="none" xmlns="http://www.w3.org/2000/svg">
<path d="M22.8118 35.9901C22.5117 35.6809 22.2319 35.3329 22.0752 35.1298C22.9498 34.0218 22.8901 32.1504 21.8285 30.5945C21.1356 29.5791 20.1438 28.8763 19.1018 28.6612C19.0974 28.66 19.0933 28.659 19.0885 28.6581C19.0879 28.6577 19.0841 28.6571 19.0813 28.6568H19.0807C17.4319 28.3384 17.1631 27.5684 16.8786 26.7529C16.7011 26.2437 16.5172 25.7175 16.0005 25.3076C14.8341 24.3821 14.6787 24.0379 14.3038 23.2062C14.2719 23.1352 14.2384 23.0609 14.2024 22.9826C13.897 22.3136 13.0682 20.4779 12.0088 18.1265C12.9775 14.7232 14.2643 10.1621 14.8682 7.84501C14.9642 7.47642 15.0596 7.11351 15.1528 6.75849C16.2535 2.5691 16.792 0.366698 16.0245 0.0142131C16.0037 0.00473773 15.9812 0 15.9588 0C15.938 0 15.9171 0.00410587 15.8975 0.0123179C15.8568 0.0293736 15.8252 0.0628534 15.8104 0.104545C15.7652 0.231516 12.8392 8.45049 10.5461 14.8783C7.6413 8.4249 4.1155 0.578948 4.05928 0.453556C4.04191 0.414707 4.00938 0.384386 3.96926 0.370173C3.95189 0.363856 3.93389 0.360697 3.91557 0.360697C3.89188 0.360697 3.86819 0.366067 3.84672 0.376489C3.00182 0.788354 3.73459 3.05329 5.2137 7.35702C5.33909 7.72183 5.46733 8.09453 5.59651 8.47323C6.4035 10.838 8.03643 15.2001 9.26886 18.4559C8.62896 20.2471 8.14161 21.6084 7.94167 22.1601C7.0791 24.5401 5.94805 27.1268 3.43675 27.6976C3.36979 27.7153 3.3082 27.7333 3.24661 27.7532C2.36887 28.0365 1.54988 28.6549 0.940608 29.4944C0.331339 30.334 -0.00251254 31.3042 1.42385e-05 32.2265C0.00254101 33.2135 0.3844 34.0331 1.07516 34.5341C1.48639 34.8326 1.9908 34.9946 2.53437 35.0025L2.57701 35.0028C3.77881 35.0028 5.0542 34.2748 5.90636 33.1023C5.90699 33.1014 5.90762 33.1005 5.90857 33.0995C6.53521 32.236 6.864 31.2407 6.83937 30.2882C6.84505 30.2692 6.84726 30.2487 6.84537 30.2278C6.68176 28.5393 6.65902 26.7475 8.29605 25.0331C9.98173 23.2678 10.7398 22.4788 10.7473 22.4713C10.7619 22.4561 10.771 22.4368 10.7786 22.4172C10.8231 22.5338 10.8487 22.5998 10.8516 22.6077C10.861 22.632 10.8762 22.6538 10.8961 22.6709C10.9068 22.68 11.9817 23.6026 13.9927 25.3398C15.8492 26.9433 15.9756 29.4208 15.9092 31.145C15.9083 31.1567 15.9067 31.1741 15.9048 31.1912C15.9013 31.2256 15.8982 31.26 15.8972 31.2957C15.8966 31.3162 15.8972 31.3368 15.8979 31.3576C15.8982 31.369 15.8985 31.3807 15.8985 31.392L15.8972 31.4151L15.8944 31.4742C15.8934 31.4928 15.8956 31.5108 15.9007 31.5279C15.9247 32.3819 16.2279 33.2767 16.7582 34.054C17.3429 34.9109 18.1432 35.5527 19.0124 35.8616C19.3693 35.9882 19.7247 36.0552 20.0689 36.0603L20.1106 36.0606C20.5835 36.0606 21.0326 35.9387 21.4195 35.709C21.6112 35.8651 21.9732 36.1705 22.2903 36.4968C22.7464 36.9664 22.832 37.2579 22.9217 37.3502C23.0114 37.4424 23.12 37.402 23.4062 37.124C23.6923 36.8461 23.7359 36.7384 23.6465 36.6462C23.5568 36.5539 23.2678 36.4598 22.8118 35.9901ZM1.41343 33.7265C1.37521 33.6993 1.31836 33.6573 1.25519 33.5951C1.12822 33.4725 0.963664 33.266 0.85975 32.9738C0.807003 32.8288 0.767207 32.6652 0.744782 32.4899C0.733727 32.4015 0.727094 32.313 0.723936 32.2173C0.721409 32.1276 0.725199 32.0329 0.731832 31.935C0.759943 31.5496 0.869227 31.1476 1.03663 30.7733C1.12159 30.5866 1.22045 30.4066 1.3291 30.237C1.38342 30.1514 1.43996 30.0708 1.50029 29.9903C1.5584 29.9136 1.61968 29.8378 1.68253 29.7635C1.93268 29.4723 2.20968 29.2421 2.46236 29.0709C2.71567 28.8994 2.95066 28.7974 3.11521 28.7339C3.1986 28.7035 3.26461 28.6827 3.31041 28.6704C3.35589 28.6574 3.38021 28.6505 3.38021 28.6505C3.38021 28.6505 3.28577 28.6865 3.12722 28.762C3.04857 28.8008 2.95413 28.8495 2.85053 28.9133C2.74599 28.9758 2.63386 29.0548 2.51384 29.1429C2.03691 29.4992 1.50218 30.1144 1.18002 30.8377C1.01609 31.1968 0.90934 31.5809 0.869543 31.9476C0.860068 32.0376 0.855962 32.1283 0.852171 32.2202C0.850592 32.3061 0.85217 32.3949 0.858487 32.4786C0.871121 32.6472 0.90081 32.8051 0.943449 32.9463C1.02873 33.2293 1.16107 33.4447 1.2773 33.5745C1.33447 33.6402 1.38311 33.6889 1.4188 33.7201C1.45418 33.7514 1.47313 33.7678 1.47313 33.7678C1.47313 33.7678 1.45228 33.7533 1.41343 33.7265ZM5.01693 32.4527C5.0163 32.4533 5.01567 32.4542 5.01535 32.4549C4.37292 33.3383 3.42285 33.909 2.59407 33.909C2.2599 33.909 1.96711 33.8193 1.72328 33.6421C1.32499 33.3531 1.10485 32.8494 1.10327 32.2233C1.10137 31.5329 1.36068 30.7935 1.83382 30.1416C2.30665 29.49 2.92918 29.014 3.58646 28.8018C3.82019 28.7263 4.04823 28.6881 4.26363 28.6881L4.28985 28.6884C4.61138 28.6931 4.89343 28.7819 5.12779 28.9518C6.00521 29.5892 5.95563 31.1596 5.01693 32.4527ZM11.1551 14.2794C11.2827 13.8818 11.4555 13.3101 11.6797 12.6301C11.9046 11.9504 12.1567 11.1535 12.4453 10.3064C12.7331 9.45899 13.0401 8.55503 13.3474 7.65108C13.6645 6.7506 13.9816 5.85012 14.2788 5.00618C14.5757 4.16192 14.8691 3.37956 15.1127 2.70618C15.3568 2.03311 15.5738 1.4769 15.7191 1.08525C15.8694 0.695179 15.9553 0.472507 15.9553 0.472507C15.9553 0.472507 15.8852 0.700864 15.7624 1.1001C15.6348 1.49806 15.4617 2.06943 15.2377 2.74945C15.0129 3.42915 14.7605 4.22572 14.4721 5.07314C14.1844 5.92055 13.8774 6.82451 13.5704 7.72846C13.2533 8.62894 12.9362 9.52942 12.639 10.3737C12.3427 11.2183 12.0486 12.0003 11.8054 12.6737C11.5616 13.3467 11.3443 13.903 11.1987 14.2946C11.0483 14.6847 10.9624 14.9073 10.9624 14.9073C10.9624 14.9073 11.0326 14.679 11.1551 14.2794ZM8.24678 14.8808C7.99094 14.2352 7.67636 13.4999 7.3741 12.6926C7.06962 11.8875 6.75061 11.0265 6.43698 10.1636C6.14071 9.29475 5.84445 8.42617 5.5665 7.6116C5.2914 6.7964 5.05957 6.02699 4.85016 5.37129C4.64202 4.71528 4.48725 4.16223 4.37039 3.77785C4.26016 3.39157 4.19699 3.17079 4.19699 3.17079C4.19699 3.17079 4.28101 3.38462 4.42819 3.75858C4.56906 4.13475 4.78225 4.6679 5.01725 5.31476C5.25129 5.96193 5.53808 6.71207 5.82423 7.52285C6.1145 8.33205 6.42371 9.19557 6.73324 10.0588C7.0333 10.9251 7.33872 11.7896 7.63025 12.5982C7.92114 13.4055 8.18298 14.1689 8.41008 14.8116C8.4723 14.9658 8.54336 15.1063 8.63938 15.2128C8.73192 15.324 8.85574 15.3846 8.98081 15.4266C9.23349 15.5059 9.47985 15.4607 9.66462 15.3998C9.85223 15.3378 9.99089 15.2608 10.0822 15.2055C10.1734 15.1493 10.2183 15.113 10.2183 15.113C10.2183 15.113 10.1772 15.1534 10.091 15.2185C10.0048 15.2832 9.87339 15.3742 9.6861 15.4569C9.49911 15.5311 9.24423 15.606 8.95017 15.5406C8.80867 15.5068 8.6498 15.4421 8.53041 15.317C8.40723 15.197 8.31943 15.0419 8.24678 14.8808ZM8.00453 25.04C7.97957 25.0201 7.94799 24.9898 7.90851 24.956C7.87061 24.921 7.82639 24.8824 7.78217 24.8401C7.73511 24.8 7.68868 24.7555 7.63878 24.7147C7.54118 24.6313 7.43884 24.5536 7.35641 24.4946C7.27429 24.4368 7.21143 24.3954 7.21143 24.3954C7.21143 24.3954 7.28661 24.3742 7.39684 24.3951C7.45148 24.4049 7.51496 24.4232 7.57719 24.4541C7.6413 24.4823 7.70163 24.5262 7.76038 24.5713C7.81502 24.6212 7.8665 24.6743 7.90661 24.7305C7.94578 24.787 7.97768 24.8426 7.99758 24.8941C8.04053 24.9949 8.0459 25.071 8.0459 25.071C8.0459 25.071 8.02948 25.0599 8.00453 25.04ZM9.92235 22.8999C9.8756 22.9545 9.81686 23.0192 9.74453 23.0894C9.67188 23.1592 9.5866 23.2362 9.47543 23.2994C9.41826 23.33 9.36141 23.3607 9.28055 23.3727C9.23917 23.3784 9.21833 23.3787 9.17095 23.3733C9.13526 23.3683 9.09957 23.361 9.06419 23.3518C8.92238 23.3168 8.78025 23.2574 8.64506 23.1728C8.51051 23.0891 8.37849 22.9776 8.2929 22.8196C8.25247 22.7397 8.23067 22.6459 8.23794 22.5458L8.24805 22.4855L8.25057 22.4703C8.25468 22.4514 8.25404 22.4567 8.25626 22.4485L8.26478 22.4191L8.2989 22.3016C8.39523 21.9893 8.49188 21.6769 8.58221 21.3844C8.67223 21.0916 8.76603 20.821 8.84152 20.5879C8.91764 20.3548 8.98839 20.1627 9.0345 20.0272C9.08346 19.8927 9.11125 19.8156 9.11125 19.8156C9.11125 19.8156 9.09231 19.8952 9.05946 20.0345C9.02377 20.1728 8.97765 20.3724 8.91322 20.609C8.84847 20.8453 8.77835 21.1229 8.69307 21.417C8.60811 21.7113 8.51746 22.0253 8.42681 22.3392L8.39081 22.4564L8.38165 22.4858C8.38102 22.4877 8.37691 22.5025 8.37912 22.4934L8.37628 22.5085L8.36491 22.5685C8.36207 22.6308 8.3728 22.6999 8.40439 22.7647C8.47008 22.892 8.58442 22.9975 8.7076 23.0761C8.83173 23.1541 8.96154 23.2195 9.09073 23.259C9.15769 23.2805 9.21485 23.2937 9.27707 23.2877C9.32793 23.283 9.38952 23.259 9.44068 23.2337C9.54523 23.1803 9.63524 23.1137 9.71231 23.0527C9.78906 22.9908 9.85318 22.9324 9.90403 22.8828C10.007 22.7839 10.062 22.723 10.062 22.723C10.062 22.723 10.0155 22.7906 9.92235 22.8999ZM10.8304 21.9179C10.7663 21.7672 10.6687 21.554 10.5626 21.2944C10.4564 21.0345 10.3279 20.7335 10.199 20.4072C10.0683 20.0819 9.93467 19.7325 9.80012 19.3832C9.66904 19.0329 9.53733 18.6827 9.41889 18.3526C9.29887 18.0229 9.19527 17.7124 9.10209 17.4477C9.00924 17.183 8.9407 16.9588 8.88858 16.8037C8.83963 16.6473 8.81152 16.558 8.81152 16.558C8.81152 16.558 8.85005 16.6436 8.91701 16.793C8.98113 16.9436 9.07841 17.1568 9.18485 17.4164C9.29097 17.6764 9.41921 17.9777 9.54839 18.3037C9.67915 18.629 9.81307 18.9783 9.9473 19.3276C10.0787 19.6779 10.2104 20.0279 10.3285 20.3582C10.4486 20.6877 10.5521 20.9985 10.6453 21.2631C10.7385 21.5278 10.8067 21.7521 10.8588 21.9072C10.9078 22.0635 10.9359 22.1529 10.9359 22.1529C10.9359 22.1529 10.8977 22.0676 10.8304 21.9179ZM11.1418 17.7395C11.0025 17.6325 10.8579 17.6031 10.7641 17.5984C10.7148 17.5968 10.6785 17.6003 10.6542 17.6044C10.6295 17.6078 10.6166 17.6097 10.6166 17.6097C10.6166 17.6097 10.6292 17.6132 10.6532 17.6198C10.6775 17.6246 10.7117 17.6394 10.7518 17.6536C10.8329 17.6881 10.9413 17.7522 11.03 17.8593C11.1188 17.9657 11.1835 18.1148 11.1826 18.2755C11.1813 18.2942 11.1832 18.3191 11.1801 18.3324C11.1766 18.3548 11.1756 18.3867 11.1699 18.4006C11.1621 18.4335 11.1504 18.4752 11.1352 18.5124C11.1049 18.5882 11.0572 18.6583 10.9972 18.7152C10.9384 18.7733 10.867 18.8191 10.7903 18.8472C10.712 18.8738 10.6358 18.8918 10.5484 18.8873C10.4732 18.8835 10.3945 18.8687 10.3244 18.8387C10.2549 18.8084 10.1924 18.7686 10.1403 18.7231C10.0361 18.6315 9.97478 18.5213 9.94256 18.4392C9.9293 18.3975 9.91572 18.3637 9.91161 18.3397C9.90561 18.3157 9.90245 18.3027 9.90245 18.3027C9.90245 18.3027 9.90024 18.3157 9.89613 18.3403C9.89108 18.3649 9.88697 18.4019 9.88666 18.4499C9.88855 18.5437 9.91382 18.6896 10.0168 18.8321C10.0518 18.8823 10.097 18.9309 10.1507 18.9748C9.93751 18.8276 9.79885 18.5803 9.80296 18.3018C9.80959 17.858 10.1744 17.5036 10.6182 17.5099C10.8977 17.514 11.1412 17.6606 11.2821 17.8792C11.2391 17.8232 11.1914 17.7759 11.1418 17.7395ZM13.1876 21.5044C13.1029 21.3323 12.9763 21.0891 12.8348 20.7925C12.6936 20.4959 12.5237 20.152 12.3509 19.7796C12.1759 19.4082 11.9953 19.0093 11.8136 18.6107C11.6352 18.2108 11.4564 17.8109 11.2938 17.4338C11.1295 17.0573 10.9839 16.7026 10.8554 16.4004C10.7268 16.0981 10.6286 15.8423 10.5556 15.6647C10.4858 15.486 10.4457 15.384 10.4457 15.384C10.4457 15.384 10.4956 15.4816 10.5834 15.6521C10.6681 15.8243 10.7944 16.0675 10.9359 16.364C11.0771 16.6606 11.2467 17.0046 11.4198 17.377C11.5944 17.7484 11.7757 18.1473 11.957 18.5459C12.1355 18.9458 12.3146 19.3456 12.4772 19.7228C12.6418 20.0989 12.7868 20.4539 12.9156 20.7562C13.0442 21.0585 13.1424 21.3146 13.2154 21.4918C13.2852 21.6706 13.3253 21.7726 13.3253 21.7726C13.3253 21.7726 13.2751 21.675 13.1876 21.5044ZM16.5141 27.0191C16.4285 26.7901 16.3517 26.5542 16.2383 26.3404C16.2143 26.2842 16.1843 26.2324 16.1524 26.1815C16.1205 26.1307 16.0931 26.0766 16.0577 26.0286C15.9812 25.9374 15.9168 25.8357 15.8246 25.7608L15.6954 25.6398C15.6483 25.6013 15.6016 25.5631 15.5552 25.5249C15.462 25.45 15.3717 25.3704 15.282 25.2943C14.9276 24.987 14.6234 24.6594 14.4219 24.3376C14.2185 24.0167 14.1133 23.7204 14.0271 23.5208C13.9462 23.3184 13.8998 23.2028 13.8998 23.2028C13.8998 23.2028 13.956 23.3139 14.0549 23.5082C14.1525 23.7024 14.2867 23.9851 14.4955 24.2883C14.6007 24.4396 14.7292 24.5922 14.8777 24.7425C15.0268 24.8922 15.1957 25.0388 15.3707 25.1907C15.4601 25.2643 15.5489 25.3404 15.6439 25.4146C15.691 25.4519 15.738 25.4898 15.7857 25.5274L15.9257 25.6544C16.0258 25.7343 16.0978 25.842 16.1812 25.9399C16.22 25.9911 16.25 26.0479 16.2851 26.1019C16.3198 26.1562 16.353 26.2112 16.3786 26.2696C16.4951 26.4986 16.5694 26.7393 16.6518 26.9702C16.7307 27.2014 16.8122 27.425 16.9146 27.6287C16.9667 27.7298 17.0261 27.8242 17.0842 27.9161C17.1173 27.9594 17.1499 28.0021 17.1824 28.0444L17.2307 28.1075C17.2484 28.1268 17.268 28.1445 17.2863 28.1625C17.4285 28.3151 17.5917 28.4291 17.7465 28.5264C17.9089 28.612 18.056 28.6963 18.1988 28.7437C18.2689 28.7715 18.3343 28.797 18.3949 28.821C18.4562 28.8444 18.5156 28.8564 18.5677 28.8719C18.7771 28.9319 18.8971 28.9663 18.8971 28.9663C18.8971 28.9663 18.7749 28.9426 18.5608 28.9016C18.5077 28.8896 18.4477 28.8817 18.3845 28.8627C18.3214 28.8428 18.2531 28.8214 18.1802 28.7986C18.1082 28.7727 18.026 28.7572 17.9493 28.7187C17.8713 28.6821 17.7892 28.6432 17.7032 28.6028C17.539 28.509 17.3628 28.3972 17.2055 28.2424C17.1853 28.2238 17.1638 28.2061 17.1442 28.1865L17.0902 28.1221C17.0539 28.0788 17.0172 28.0346 16.9803 27.9904C16.913 27.8969 16.8508 27.7955 16.7939 27.6909C16.6837 27.4796 16.5968 27.2503 16.5141 27.0191ZM20.0402 35.3155C19.8655 35.3152 19.6912 35.2905 19.5216 35.2501C19.3498 35.2087 19.188 35.1535 19.027 35.0799C18.8681 35.0079 18.7146 34.9235 18.5696 34.8266C18.4246 34.7296 18.2869 34.6225 18.1565 34.5069C18.0254 34.3923 17.9044 34.2666 17.7914 34.1345C17.6799 34.0041 17.5747 33.8686 17.4796 33.7258L17.4784 33.7246L17.4755 33.7201C17.3665 33.5546 17.2667 33.3825 17.1821 33.2034C17.0981 33.024 17.0267 32.8389 16.9698 32.6494C16.9411 32.555 16.9165 32.4593 16.8956 32.3626C16.8745 32.2663 16.8606 32.1684 16.8489 32.0708C16.8378 31.9729 16.8315 31.8747 16.8287 31.7767C16.8258 31.6785 16.8318 31.5806 16.8391 31.4833C16.846 31.6785 16.8672 31.8721 16.9057 32.0619C16.9455 32.2515 16.997 32.4378 17.0621 32.6191C17.1275 32.8004 17.2064 32.9763 17.2971 33.1456C17.3871 33.3149 17.4856 33.4798 17.5962 33.6364L17.5968 33.6374C17.6947 33.7738 17.7964 33.9074 17.9073 34.0335C18.0172 34.1601 18.136 34.2786 18.2601 34.3907C18.509 34.614 18.7853 34.8076 19.0854 34.9542C19.2338 35.0252 19.393 35.09 19.5509 35.137C19.7108 35.1841 19.876 35.2169 20.0427 35.2261C20.2092 35.2346 20.3775 35.2264 20.5421 35.1917C20.7063 35.155 20.8646 35.0919 21.0127 35.0056C20.7417 35.2163 20.3886 35.3193 20.0402 35.3155ZM20.9268 34.7182C20.6943 34.8768 20.4186 34.9573 20.1078 34.9573C19.8766 34.9573 19.6324 34.9122 19.3817 34.8231C18.7307 34.5916 18.1224 34.0979 17.6688 33.4327C17.6682 33.4318 17.6676 33.4308 17.6669 33.4299C17.2143 32.7653 16.9771 32.0199 16.9992 31.3308C17.0191 30.7051 17.2538 30.2079 17.6603 29.9303C17.8956 29.7698 18.1735 29.6884 18.4862 29.6884L18.5121 29.6887C19.3491 29.7007 20.2935 30.3002 20.9182 31.2155C21.8187 32.5357 21.8225 34.1071 20.9268 34.7182ZM23.187 36.6111C23.0998 36.5697 23.0006 36.5157 22.8992 36.4491C22.8471 36.4124 22.7985 36.3831 22.7467 36.3379C22.6952 36.2956 22.6488 36.2494 22.6033 36.2027C22.4261 36.0119 22.283 35.7994 22.1864 35.6335C22.0891 35.468 22.0405 35.348 22.0405 35.348C22.0405 35.348 22.1327 35.4387 22.259 35.5805C22.3216 35.6512 22.3945 35.734 22.4728 35.8227C22.5512 35.9105 22.6317 36.0059 22.7173 36.0947C22.759 36.1399 22.8013 36.1844 22.8452 36.2223C22.8869 36.2596 22.9378 36.3022 22.9807 36.3369C23.0733 36.409 23.1595 36.4762 23.2337 36.534C23.3853 36.6499 23.4867 36.727 23.4867 36.727C23.4867 36.727 23.361 36.6951 23.187 36.6111Z" fill="black"/>
<path d="M10.0391 18.25C10.0347 18.5485 10.2732 18.7943 10.572 18.7987C10.8704 18.8031 11.1162 18.5643 11.1206 18.2658C11.125 17.9674 10.879 18.2355 10.5805 18.2314C10.2814 18.227 10.0432 17.9516 10.0391 18.25Z" fill="white"/>
<path d="M10.4048 17.7565C10.3634 17.7673 10.3286 17.79 10.2996 17.8067C10.2702 17.8235 10.2513 17.8478 10.2374 17.8614C10.225 17.8775 10.2178 17.887 10.2178 17.887C10.2178 17.887 10.2295 17.887 10.2497 17.8873C10.2683 17.8847 10.2967 17.8879 10.3264 17.8851C10.3561 17.8806 10.3918 17.8863 10.4269 17.8822C10.4622 17.8794 10.4998 17.8797 10.5371 17.8825C10.5744 17.8797 10.612 17.8797 10.6473 17.8825C10.6821 17.887 10.7181 17.8813 10.7478 17.8857C10.7775 17.8889 10.8059 17.8854 10.8245 17.8879C10.8447 17.8876 10.8561 17.8876 10.8561 17.8876C10.8561 17.8876 10.8492 17.8784 10.8368 17.862C10.8229 17.8484 10.804 17.8241 10.7746 17.8074C10.7456 17.7903 10.7111 17.7673 10.6694 17.7568C10.6281 17.7467 10.5829 17.7391 10.5371 17.7354C10.4913 17.7391 10.4461 17.7464 10.4048 17.7565Z" fill="white"/>
</svg>
